# xmcd CD database file
#
# Track frame offsets:
#	150
#	3747
#	24382
#	37910
#	38577
#	52070
#	52965
#	65427
#	78430
#	82135
#	95100
#	109625
#	110210
#	120230
#	120975
#	133452
#
# Disc length: 1795 seconds
#
# Revision: 0
# Processed by: cddbd v1.5.1PL0 Copyright (c) Steve Scherf et al.
# Submitted via: CDex 1.40Release
#
DISCID=d5070110
DTITLE=The Bloose Brothers Revue - Hotel Chicago
DYEAR=1994
DGENRE=Blues
TTITLE0=Intro
TTITLE1=Soul Finger
TTITLE2=Messin' With The Kid
TTITLE3=Pause
TTITLE4=Gimme Some Lovin'
TTITLE5=Pause
TTITLE6=Knock On Wood
TTITLE7=Hey Bartender
TTITLE8=Rockalise
TTITLE9=Jailhouse Rock
TTITLE10=Let's Stick Together
TTITLE11=Pause
TTITLE12=Guilty
TTITLE13=Pause
TTITLE14=Stagger Lee
TTITLE15=Outro
EXTD=YEAR: 1994 ID3G: 0
EXTT0=
EXTT1=
EXTT2=
EXTT3=
EXTT4=
EXTT5=
EXTT6=
EXTT7=
EXTT8=
EXTT9=
EXTT10=
EXTT11=
EXTT12=
EXTT13=
EXTT14=
EXTT15=
PLAYORDER=
